<svg width="199" height="39" viewBox="0 0 199 39" fill="none" xmlns="http://www.w3.org/2000/svg">
<path d="M37.7812 15.4857H23.793L19.5 2.4375L15.207 15.4857H1.21875L12.6605 23.5143L8.20447 36.5625L19.5 28.4761L30.7955 36.5625L26.3311 23.5143L37.7812 15.4857Z" fill="#FF2F00"/>
<path d="M77.7812 15.4857H63.793L59.5 2.4375L55.207 15.4857H41.2188L52.6605 23.5143L48.2045 36.5625L59.5 28.4761L70.7955 36.5625L66.3311 23.5143L77.7812 15.4857Z" fill="#FF2F00"/>
<path d="M117.781 15.4857H103.793L99.5 2.4375L95.207 15.4857H81.2188L92.6605 23.5143L88.2045 36.5625L99.5 28.4761L110.796 36.5625L106.331 23.5143L117.781 15.4857Z" fill="#FF2F00"/>
<path d="M157.781 15.4857H143.793L139.5 2.4375L135.207 15.4857H121.219L132.661 23.5143L128.204 36.5625L139.5 28.4761L150.796 36.5625L146.331 23.5143L157.781 15.4857Z" fill="#FF2F00"/>
<path d="M197.781 15.4857H183.793L179.5 2.4375L175.207 15.4857H161.219L172.661 23.5143L168.204 36.5625L179.5 28.4761L190.796 36.5625L186.331 23.5143L197.781 15.4857Z" fill="#FF2F00"/>
</svg>
