<svg width="16" height="13" fill="none" xmlns="http://www.w3.org/2000/svg"><g clip-path="url(#a)"><path fill-rule="evenodd" clip-rule="evenodd" d="M15.93 2.03c-2.386 1.128-3.579 2.454-3.579 3.977 1.017.112 1.858.512 2.523 1.198.665.686.997 1.48.997 2.383 0 .959-.322 1.767-.968 2.425-.645.658-1.457.987-2.435.987-1.095 0-2.043-.428-2.845-1.283C8.82 10.86 8.42 9.823 8.42 8.6c0-3.666 2.132-6.533 6.395-8.601l1.115 2.03Zm-8.42 0C5.104 3.158 3.902 4.484 3.902 6.007c1.036.112 1.887.512 2.552 1.198.665.686.997 1.48.997 2.383 0 .959-.327 1.767-.983 2.425-.655.658-1.471.987-2.45.987-1.094 0-2.038-.428-2.83-1.283C.396 10.86 0 9.823 0 8.6 0 4.935 2.122 2.068 6.366 0L7.51 2.03Z" fill="#1DB5BE"/></g><defs><clipPath id="a"><path fill="#fff" d="M0 0h16v13H0z"/></clipPath></defs></svg>