<svg width="47" height="47" viewBox="0 0 47 47" fill="none" xmlns="http://www.w3.org/2000/svg">
<path d="M41.9643 38.6071H31.8929C30.5573 38.6071 29.2764 39.1377 28.3321 40.0821C27.3877 41.0265 26.8571 42.3073 26.8571 43.6429V47H30.2143V43.6429C30.2143 43.1977 30.3911 42.7707 30.7059 42.4559C31.0207 42.1411 31.4477 41.9643 31.8929 41.9643H41.9643C42.4095 41.9643 42.8364 42.1411 43.1512 42.4559C43.466 42.7707 43.6429 43.1977 43.6429 43.6429V47H47V43.6429C47 42.3073 46.4695 41.0265 45.5251 40.0821C44.5807 39.1377 43.2998 38.6071 41.9643 38.6071ZM30.2143 30.2143C30.2143 31.5422 30.6081 32.8404 31.3458 33.9445C32.0836 35.0487 33.1323 35.9093 34.3591 36.4175C35.586 36.9257 36.936 37.0586 38.2385 36.7996C39.5409 36.5405 40.7373 35.901 41.6763 34.962C42.6153 34.023 43.2548 32.8266 43.5138 31.5242C43.7729 30.2217 43.64 28.8717 43.1318 27.6448C42.6236 26.418 41.763 25.3693 40.6588 24.6316C39.5547 23.8938 38.2565 23.5 36.9286 23.5C35.1478 23.5 33.44 24.2074 32.1809 25.4666C30.9217 26.7257 30.2143 28.4335 30.2143 30.2143ZM40.2857 30.2143C40.2857 30.8783 40.0888 31.5273 39.7199 32.0794C39.351 32.6315 38.8267 33.0618 38.2133 33.3159C37.5999 33.57 36.9248 33.6365 36.2736 33.5069C35.6224 33.3774 35.0242 33.0577 34.5547 32.5881C34.0852 32.1186 33.7655 31.5205 33.6359 30.8692C33.5064 30.218 33.5729 29.543 33.827 28.9296C34.0811 28.3161 34.5114 27.7918 35.0634 27.4229C35.6155 27.054 36.2646 26.8571 36.9286 26.8571C37.8189 26.8571 38.6728 27.2108 39.3024 27.8404C39.932 28.47 40.2857 29.3239 40.2857 30.2143ZM6.71429 31.8929V30.2143H3.35714V31.8929C3.35714 35.0092 4.59509 37.9978 6.79864 40.2014C9.00219 42.4049 11.9908 43.6429 15.1071 43.6429H20.1429V40.2857H15.1071C12.8812 40.2857 10.7465 39.4015 9.1725 37.8275C7.59853 36.2535 6.71429 34.1188 6.71429 31.8929ZM28.5357 13.4286H40.2857V16.7857H28.5357V13.4286ZM28.5357 6.71429H45.3214V10.0714H28.5357V6.71429ZM28.5357 2.81789e-06H45.3214V3.35715H28.5357V2.81789e-06ZM15.1071 15.1071H5.03571C3.70016 15.1071 2.41931 15.6377 1.47493 16.5821C0.530547 17.5265 0 18.8073 0 20.1429V23.5H3.35714V20.1429C3.35714 19.6977 3.53399 19.2707 3.84879 18.9559C4.16358 18.6411 4.59053 18.4643 5.03571 18.4643H15.1071C15.5523 18.4643 15.9793 18.6411 16.2941 18.9559C16.6089 19.2707 16.7857 19.6977 16.7857 20.1429V23.5H20.1429V20.1429C20.1429 18.8073 19.6123 17.5265 18.6679 16.5821C17.7236 15.6377 16.4427 15.1071 15.1071 15.1071ZM10.0714 13.4286C11.3994 13.4286 12.6975 13.0348 13.8017 12.297C14.9058 11.5592 15.7664 10.5106 16.2746 9.28373C16.7828 8.05686 16.9158 6.70684 16.6567 5.4044C16.3976 4.10195 15.7582 2.90558 14.8191 1.96657C13.8801 1.02756 12.6838 0.388088 11.3813 0.129016C10.0789 -0.130056 8.72886 0.00290917 7.50198 0.511098C6.27511 1.01929 5.22648 1.87987 4.4887 2.98403C3.75093 4.08819 3.35714 5.38633 3.35714 6.71429C3.35714 8.49503 4.06454 10.2028 5.32371 11.462C6.58288 12.7212 8.29069 13.4286 10.0714 13.4286ZM10.0714 3.35715C10.7354 3.35715 11.3845 3.55404 11.9366 3.92293C12.4886 4.29181 12.9189 4.81613 13.173 5.42956C13.4271 6.043 13.4936 6.71801 13.3641 7.36923C13.2345 8.02046 12.9148 8.61864 12.4453 9.08815C11.9758 9.55765 11.3776 9.87739 10.7264 10.0069C10.0752 10.1365 9.40014 10.07 8.78671 9.81588C8.17327 9.56179 7.64895 9.1315 7.28007 8.57942C6.91118 8.02734 6.71429 7.37827 6.71429 6.71429C6.71429 5.82392 7.06798 4.97002 7.69757 4.34043C8.32716 3.71084 9.18106 3.35715 10.0714 3.35715Z" fill="white"/>
</svg>
