<svg width="47" height="47" viewBox="0 0 47 47" fill="none" xmlns="http://www.w3.org/2000/svg">
<path d="M35.2499 42.3001L30.8856 37.9358L28.5356 40.2858L35.2499 47.0001L46.9999 35.2501L44.6499 32.9001L35.2499 42.3001ZM16.7856 26.8572H30.2142V30.2144H16.7856V26.8572ZM16.7856 18.4644H30.2142V21.8215H16.7856V18.4644ZM16.7856 10.0715H30.2142V13.4287H16.7856V10.0715Z" fill="white"/>
<path d="M23.5 43.6429H6.71429V36.9286H10.0714V33.5714H6.71429V25.1786H10.0714V21.8214H6.71429V13.4286H10.0714V10.0714H6.71429V3.35714H36.9286V30.2143H40.2857V3.35714C40.2857 1.51071 38.775 0 36.9286 0H6.71429C4.86786 0 3.35714 1.51071 3.35714 3.35714V10.0714H0V13.4286H3.35714V21.8214H0V25.1786H3.35714V33.5714H0V36.9286H3.35714V43.6429C3.35714 45.4893 4.86786 47 6.71429 47H23.5V43.6429Z" fill="white"/>
</svg>
