<svg width="46" height="47" viewBox="0 0 46 47" fill="none" xmlns="http://www.w3.org/2000/svg">
<path d="M29.75 37.2857H41.125V40.5238H29.75V37.2857ZM33 43.7619H37.875V47H33V43.7619ZM41.125 34.0476H37.875C37.875 32.2667 38.525 30.8095 39.825 29.5143L40.6375 28.7048C41.9375 27.4095 42.75 25.4667 42.75 23.5238C42.75 19.4762 39.5 16.2381 35.4375 16.2381C31.375 16.2381 28.125 19.4762 28.125 23.5238C28.125 25.4667 28.9375 27.2476 30.2375 28.7048L31.05 29.5143C32.35 30.8095 33 32.2667 33 34.0476H29.75C29.75 33.2381 29.425 32.4286 28.775 31.781L27.9625 30.9714C26.0125 29.0286 24.875 26.2762 24.875 23.5238C24.875 17.6952 29.5875 13 35.4375 13C41.2875 13 46 17.6952 46 23.5238C46 26.2762 44.8625 29.0286 42.9125 30.9714L42.1 31.781C41.45 32.4286 41.125 33.2381 41.125 34.0476ZM7 32.4286H20V35.6667H7V32.4286Z" fill="white"/>
<path d="M16 29C17.1046 29 18 28.3284 18 27.5C18 26.6716 17.1046 26 16 26C14.8954 26 14 26.6716 14 27.5C14 28.3284 14.8954 29 16 29Z" fill="white"/>
<path d="M7 25.8H11.9091V29H7V25.8ZM7 19.4H18.4545V22.6H7V19.4ZM13.5455 13H25V16.2H13.5455V13Z" fill="white"/>
<path d="M7 7H13V9H7V7Z" fill="white"/>
<path d="M25.4545 42.7143H3.18182V3.28571H31.8182V9.85714H35V3.28571C35 1.47857 33.5682 0 31.8182 0H3.18182C1.43182 0 0 1.47857 0 3.28571V42.7143C0 44.5214 1.43182 46 3.18182 46H25.4545V42.7143Z" fill="white"/>
</svg>
